<svg width="43" height="43" viewBox="0 0 43 43" fill="none" xmlns="http://www.w3.org/2000/svg">
<path d="M17.0209 17.9172C17.0209 16.499 15.1346 16.1231 14.6342 17.4501C13.4237 20.6599 12.5417 23.5313 12.5417 25.0837C12.5417 30.0313 16.5525 34.042 21.5 34.042C26.4476 34.042 30.4584 30.0313 30.4584 25.0837C30.4584 23.4158 29.4403 20.2255 28.0906 16.7288C26.3421 12.1991 25.4679 9.93423 24.3888 9.81224C24.0435 9.7732 23.6668 9.84338 23.3587 10.0041C22.3959 10.5065 22.3959 12.9768 22.3959 17.9172C22.3959 19.4014 21.1926 20.6047 19.7084 20.6047C18.2241 20.6047 17.0209 19.4014 17.0209 17.9172Z" fill="#FFC30D"/>
</svg>
