<svg width="129" height="59" viewBox="0 0 129 59" fill="none" xmlns="http://www.w3.org/2000/svg">
<path d="M0.96 18.54H3.6V35.34H0.96V18.54ZM11.1223 30.468L12.9223 18.54H16.5943V35.34H14.0983V23.292L12.2743 35.34H9.77831L7.81031 23.46V35.34H5.50631V18.54H9.17831L11.1223 30.468ZM18.5147 18.54H22.6907C24.0187 18.54 25.0027 18.892 25.6427 19.596C26.2987 20.3 26.6267 21.332 26.6267 22.692V31.188C26.6267 32.548 26.2987 33.58 25.6427 34.284C25.0027 34.988 24.0187 35.34 22.6907 35.34H18.5147V18.54ZM21.1547 20.94V32.94H22.6427C23.0587 32.94 23.3867 32.82 23.6267 32.58C23.8667 32.34 23.9867 31.916 23.9867 31.308V22.572C23.9867 21.964 23.8667 21.54 23.6267 21.3C23.3867 21.06 23.0587 20.94 22.6427 20.94H21.1547ZM32.2956 18.54C33.6716 18.54 34.6636 18.86 35.2716 19.5C35.8956 20.14 36.2076 21.108 36.2076 22.404V23.004C36.2076 23.868 36.0716 24.58 35.7996 25.14C35.5276 25.7 35.0956 26.116 34.5036 26.388C35.2236 26.66 35.7276 27.108 36.0156 27.732C36.3196 28.34 36.4716 29.092 36.4716 29.988V31.356C36.4716 32.652 36.1356 33.644 35.4636 34.332C34.7916 35.004 33.7916 35.34 32.4636 35.34H28.3116V18.54H32.2956ZM30.9516 27.78V32.94H32.4636C32.9116 32.94 33.2476 32.82 33.4716 32.58C33.7116 32.34 33.8316 31.908 33.8316 31.284V29.82C33.8316 29.036 33.6956 28.5 33.4236 28.212C33.1676 27.924 32.7356 27.78 32.1276 27.78H30.9516ZM30.9516 20.94V25.38H31.9836C32.4796 25.38 32.8636 25.252 33.1356 24.996C33.4236 24.74 33.5676 24.276 33.5676 23.604V22.668C33.5676 22.06 33.4556 21.62 33.2316 21.348C33.0236 21.076 32.6876 20.94 32.2236 20.94H30.9516ZM40.6056 32.796V35.34H38.0616V32.796H40.6056ZM40.6056 23.652V26.196H38.0616V23.652H40.6056Z" fill="white"/>
<path d="M128.56 29.5C128.56 45.7924 115.352 59 99.06 59C82.7676 59 69.56 45.7924 69.56 29.5C69.56 13.2076 82.7676 0 99.06 0C115.352 0 128.56 13.2076 128.56 29.5ZM73.1 29.5C73.1 43.8373 84.7227 55.46 99.06 55.46C113.397 55.46 125.02 43.8373 125.02 29.5C125.02 15.1627 113.397 3.54 99.06 3.54C84.7227 3.54 73.1 15.1627 73.1 29.5Z" fill="#FFCF5F"/>
<path d="M99.06 0C105.448 7.61788e-08 111.664 2.07368 116.772 5.9093C121.881 9.74492 125.606 15.1352 127.389 21.2698C129.171 27.4043 128.914 33.9517 126.656 39.9275C124.398 45.9033 120.261 50.9847 114.867 54.4077C109.473 57.8307 103.114 59.4103 96.7455 58.9091C90.3769 58.4078 84.3432 55.8529 79.5513 51.6283C74.7594 47.4037 71.4684 41.7377 70.1729 35.4822C68.8775 29.2267 69.6476 22.7197 72.3676 16.9395L77.7061 19.4516C75.5301 24.0758 74.914 29.2814 75.9503 34.2858C76.9867 39.2902 79.6195 43.8229 83.453 47.2026C87.2865 50.5823 92.1135 52.6263 97.2084 53.0272C102.303 53.4282 107.391 52.1645 111.706 49.4261C116.021 46.6878 119.33 42.6227 121.136 37.842C122.943 33.0613 123.149 27.8235 121.723 22.9158C120.297 18.0082 117.317 13.6959 113.23 10.6274C109.143 7.55895 104.171 5.9 99.06 5.9V0Z" fill="url(#paint0_linear_38_839)"/>
<path d="M99.06 0C105.448 7.61788e-08 111.664 2.07368 116.772 5.9093C121.881 9.74492 125.606 15.1352 127.389 21.2698C129.171 27.4043 128.914 33.9517 126.656 39.9275C124.398 45.9033 120.261 50.9847 114.867 54.4077C109.473 57.8307 103.114 59.4103 96.7455 58.9091C90.3769 58.4078 84.3432 55.8529 79.5513 51.6283C74.7594 47.4037 71.4684 41.7377 70.1729 35.4822C68.8775 29.2267 69.6476 22.7197 72.3676 16.9395L77.7061 19.4516C75.5301 24.0758 74.914 29.2814 75.9503 34.2858C76.9867 39.2902 79.6195 43.8229 83.453 47.2026C87.2865 50.5823 92.1135 52.6263 97.2084 53.0272C102.303 53.4282 107.391 52.1645 111.706 49.4261C116.021 46.6878 119.33 42.6227 121.136 37.842C122.943 33.0613 123.149 27.8235 121.723 22.9158C120.297 18.0082 117.317 13.6959 113.23 10.6274C109.143 7.55895 104.171 5.9 99.06 5.9V0Z" fill="black" fill-opacity="0.2"/>
<path d="M94.2567 34.3065C93.2607 34.3065 92.4927 34.0425 91.9527 33.5145C91.4247 32.9745 91.1607 32.2005 91.1607 31.1925V30.0765C91.1607 29.4525 91.2627 28.9305 91.4667 28.5105C91.6707 28.0785 92.0007 27.7425 92.4567 27.5025V27.4665C92.0367 27.2385 91.7247 26.9265 91.5207 26.5305C91.3287 26.1225 91.2327 25.6065 91.2327 24.9825V24.4605C91.2327 23.4525 91.4907 22.6845 92.0067 22.1565C92.5347 21.6165 93.2847 21.3465 94.2567 21.3465C95.2287 21.3465 95.9727 21.6165 96.4887 22.1565C97.0167 22.6845 97.2807 23.4525 97.2807 24.4605V24.9825C97.2807 26.1825 96.8727 27.0105 96.0567 27.4665V27.5025C96.5127 27.7425 96.8427 28.0785 97.0467 28.5105C97.2507 28.9305 97.3527 29.4525 97.3527 30.0765V31.1925C97.3527 32.2005 97.0827 32.9745 96.5427 33.5145C96.0147 34.0425 95.2527 34.3065 94.2567 34.3065ZM94.2567 26.6565C94.9527 26.6565 95.3007 26.2365 95.3007 25.3965V24.4065C95.3007 23.5665 94.9527 23.1465 94.2567 23.1465C93.5607 23.1465 93.2127 23.5665 93.2127 24.4065V25.3965C93.2127 26.2365 93.5607 26.6565 94.2567 26.6565ZM94.2567 32.5065C95.0007 32.5065 95.3727 32.0325 95.3727 31.0845V29.8785C95.3727 28.9305 95.0007 28.4565 94.2567 28.4565C93.5127 28.4565 93.1407 28.9305 93.1407 29.8785V31.0845C93.1407 32.0325 93.5127 32.5065 94.2567 32.5065ZM98.6017 32.2185H100.51V34.1265H98.6017V32.2185ZM101.958 32.7585C101.958 31.8585 102.102 31.0905 102.39 30.4545C102.678 29.8065 103.194 29.0925 103.938 28.3125C104.67 27.5325 105.174 26.8665 105.45 26.3145C105.738 25.7625 105.882 25.1865 105.882 24.5865C105.882 24.0465 105.792 23.6745 105.612 23.4705C105.444 23.2545 105.192 23.1465 104.856 23.1465C104.172 23.1465 103.83 23.5605 103.83 24.3885V25.7385H101.958V24.5145C101.958 23.4945 102.21 22.7145 102.714 22.1745C103.218 21.6225 103.95 21.3465 104.91 21.3465C105.87 21.3465 106.602 21.6225 107.106 22.1745C107.61 22.7145 107.862 23.4945 107.862 24.5145C107.862 25.2825 107.676 26.0325 107.304 26.7645C106.944 27.4965 106.314 28.3365 105.414 29.2845C104.826 29.9085 104.43 30.4185 104.226 30.8145C104.022 31.1985 103.92 31.6125 103.92 32.0565V32.3265H107.682V34.1265H101.958V32.7585Z" fill="white"/>
<defs>
<linearGradient id="paint0_linear_38_839" x1="128.56" y1="0" x2="69.56" y2="0" gradientUnits="userSpaceOnUse">
<stop stop-color="#8743FF"/>
<stop offset="1" stop-color="#4136F1"/>
</linearGradient>
</defs>
</svg>
