<svg width="109" height="59" viewBox="0 0 109 59" fill="none" xmlns="http://www.w3.org/2000/svg">
<path d="M4.416 28.644L3.6 30.18V35.34H0.96V18.54H3.6V25.86L7.104 18.54H9.696L6.024 26.028L9.696 35.34H6.984L4.416 28.644ZM13.5375 35.34H10.8975V18.54H19.2255V35.34H16.5375V20.94H13.5375V35.34ZM23.6837 32.796V35.34H21.1397V32.796H23.6837ZM23.6837 23.652V26.196H21.1397V23.652H23.6837Z" fill="white"/>
<path d="M108.5 29.5C108.5 45.7924 95.2924 59 79 59C62.7076 59 49.5 45.7924 49.5 29.5C49.5 13.2076 62.7076 0 79 0C95.2924 0 108.5 13.2076 108.5 29.5ZM53.04 29.5C53.04 43.8373 64.6627 55.46 79 55.46C93.3373 55.46 104.96 43.8373 104.96 29.5C104.96 15.1627 93.3373 3.54 79 3.54C64.6627 3.54 53.04 15.1627 53.04 29.5Z" fill="#FFCF5F"/>
<path d="M79 0C84.9925 7.14599e-08 90.8429 1.825 95.7726 5.23211C100.702 8.63921 104.477 13.4668 106.596 19.0725C108.714 24.6781 109.075 30.796 107.63 36.6117C106.185 42.4275 103.004 47.6654 98.5087 51.6283C94.0137 55.5912 88.4183 58.0912 82.4674 58.7955C76.5164 59.4999 70.492 58.3752 65.1961 55.5711C59.9001 52.767 55.5837 48.4166 52.8213 43.0987C50.0589 37.7809 48.9816 31.7479 49.7326 25.8027L55.5861 26.5421C54.9852 31.2983 55.8471 36.1247 58.057 40.379C60.267 44.6333 63.7201 48.1136 67.9569 50.3569C72.1936 52.6001 77.0131 53.4999 81.7739 52.9364C86.5347 52.3729 91.0109 50.373 94.607 47.2026C98.203 44.0323 100.748 39.842 101.904 35.1894C103.06 30.5368 102.771 25.6425 101.076 21.158C99.3819 16.6735 96.3618 12.8114 92.4181 10.0857C88.4743 7.36 83.794 5.9 79 5.9V0Z" fill="url(#paint0_linear_38_840)"/>
<path d="M79 0C84.9925 7.14599e-08 90.8429 1.825 95.7726 5.23211C100.702 8.63921 104.477 13.4668 106.596 19.0725C108.714 24.6781 109.075 30.796 107.63 36.6117C106.185 42.4275 103.004 47.6654 98.5087 51.6283C94.0137 55.5912 88.4183 58.0912 82.4674 58.7955C76.5164 59.4999 70.492 58.3752 65.1961 55.5711C59.9001 52.767 55.5837 48.4166 52.8213 43.0987C50.0589 37.7809 48.9816 31.7479 49.7326 25.8027L55.5861 26.5421C54.9852 31.2983 55.8471 36.1247 58.057 40.379C60.267 44.6333 63.7201 48.1136 67.9569 50.3569C72.1936 52.6001 77.0131 53.4999 81.7739 52.9364C86.5347 52.3729 91.0109 50.373 94.607 47.2026C98.203 44.0323 100.748 39.842 101.904 35.1894C103.06 30.5368 102.771 25.6425 101.076 21.158C99.3819 16.6735 96.3618 12.8114 92.4181 10.0857C88.4743 7.36 83.794 5.9 79 5.9V0Z" fill="black" fill-opacity="0.2"/>
<path d="M75.2047 23.3265H71.2087V21.5265H77.1487V23.2545L74.0527 34.1265H72.0367L75.2047 23.3265ZM78.5417 32.2185H80.4497V34.1265H78.5417V32.2185ZM85.8043 23.3265H81.8083V21.5265H87.7483V23.2545L84.6523 34.1265H82.6363L85.8043 23.3265Z" fill="white"/>
<defs>
<linearGradient id="paint0_linear_38_840" x1="108.5" y1="0" x2="49.5" y2="0" gradientUnits="userSpaceOnUse">
<stop stop-color="#8743FF"/>
<stop offset="1" stop-color="#4136F1"/>
</linearGradient>
</defs>
</svg>
