<svg width="131" height="79" viewBox="0 0 131 79" fill="none" xmlns="http://www.w3.org/2000/svg">
<path d="M75.88 28.8817V31.1417H72.16V42.8417H69.36V31.1417H65.64V28.8817H75.88ZM90.463 28.8817L85.343 42.8417H81.943L76.823 28.8817H79.823L83.663 39.9817L87.483 28.8817H90.463ZM93.5617 30.4417C93.0684 30.4417 92.6551 30.2883 92.3217 29.9817C92.0017 29.6617 91.8417 29.2683 91.8417 28.8017C91.8417 28.335 92.0017 27.9483 92.3217 27.6417C92.6551 27.3217 93.0684 27.1617 93.5617 27.1617C94.0551 27.1617 94.4617 27.3217 94.7817 27.6417C95.1151 27.9483 95.2817 28.335 95.2817 28.8017C95.2817 29.2683 95.1151 29.6617 94.7817 29.9817C94.4617 30.2883 94.0551 30.4417 93.5617 30.4417ZM94.9417 31.7617V42.8417H92.1417V31.7617H94.9417ZM111.468 31.6017C112.828 31.6017 113.921 32.0217 114.748 32.8617C115.588 33.6883 116.008 34.8483 116.008 36.3417V42.8417H113.208V36.7217C113.208 35.855 112.988 35.195 112.548 34.7417C112.108 34.275 111.508 34.0417 110.748 34.0417C109.988 34.0417 109.381 34.275 108.928 34.7417C108.488 35.195 108.268 35.855 108.268 36.7217V42.8417H105.468V36.7217C105.468 35.855 105.248 35.195 104.808 34.7417C104.368 34.275 103.768 34.0417 103.008 34.0417C102.235 34.0417 101.621 34.275 101.168 34.7417C100.728 35.195 100.508 35.855 100.508 36.7217V42.8417H97.7081V31.7617H100.508V33.1017C100.868 32.635 101.328 32.2683 101.888 32.0017C102.461 31.735 103.088 31.6017 103.768 31.6017C104.635 31.6017 105.408 31.7883 106.088 32.1617C106.768 32.5217 107.295 33.0417 107.668 33.7217C108.028 33.0817 108.548 32.5683 109.228 32.1817C109.921 31.795 110.668 31.6017 111.468 31.6017ZM123.585 43.0217C122.518 43.0217 121.558 42.7883 120.705 42.3217C119.852 41.8417 119.178 41.1683 118.685 40.3017C118.205 39.435 117.965 38.435 117.965 37.3017C117.965 36.1683 118.212 35.1683 118.705 34.3017C119.212 33.435 119.898 32.7683 120.765 32.3017C121.632 31.8217 122.598 31.5817 123.665 31.5817C124.732 31.5817 125.698 31.8217 126.565 32.3017C127.432 32.7683 128.112 33.435 128.605 34.3017C129.112 35.1683 129.365 36.1683 129.365 37.3017C129.365 38.435 129.105 39.435 128.585 40.3017C128.078 41.1683 127.385 41.8417 126.505 42.3217C125.638 42.7883 124.665 43.0217 123.585 43.0217ZM123.585 40.5817C124.092 40.5817 124.565 40.4617 125.005 40.2217C125.458 39.9683 125.818 39.595 126.085 39.1017C126.352 38.6083 126.485 38.0083 126.485 37.3017C126.485 36.2483 126.205 35.4417 125.645 34.8817C125.098 34.3083 124.425 34.0217 123.625 34.0217C122.825 34.0217 122.152 34.3083 121.605 34.8817C121.072 35.4417 120.805 36.2483 120.805 37.3017C120.805 38.355 121.065 39.1683 121.585 39.7417C122.118 40.3017 122.785 40.5817 123.585 40.5817Z" fill="white"/>
<g filter="url(#filter0_d_17_53)">
<path d="M20.9601 32.1493L29.6058 51.8769L31.491 53.1787L33.7012 53.8797L36.6914 54.6808L40.2017 53.1787L42.5419 51.8769L33.7012 32.1493H20.9601Z" fill="url(#paint0_linear_17_53)"/>
</g>
<g filter="url(#filter1_d_17_53)">
<path d="M51.9871 38.7451L43.3414 18.9713L41.4563 17.6664L39.2461 16.9638L36.2559 16.1608L32.7456 17.6664L30.4054 18.9713L39.2461 38.7451H51.9871Z" fill="url(#paint1_linear_17_53)"/>
</g>
<path d="M43.0041 51.6186L56.4261 32.2925L43.0041 32.1493L33.3016 51.6186C32.6204 53.6104 30.4889 52.4485 29.5084 51.6186C33.699 59.267 40.2516 54.8054 43.0041 51.6186Z" fill="#FFC30D"/>
<path d="M29.9959 19.223L16.5739 38.5491L29.9959 38.6924L39.6984 19.223C40.3796 17.2313 42.5111 18.3931 43.4916 19.223C39.301 11.5747 32.7484 16.0362 29.9959 19.223Z" fill="#FFC30D"/>
<defs>
<filter id="filter0_d_17_53" x="0.960144" y="16.1493" width="61.5817" height="62.5315" filterUnits="userSpaceOnUse" color-interpolation-filters="sRGB">
<feFlood flood-opacity="0" result="BackgroundImageFix"/>
<feColorMatrix in="SourceAlpha" type="matrix" values="0 0 0 0 0 0 0 0 0 0 0 0 0 0 0 0 0 0 127 0" result="hardAlpha"/>
<feOffset dy="4"/>
<feGaussianBlur stdDeviation="10"/>
<feComposite in2="hardAlpha" operator="out"/>
<feColorMatrix type="matrix" values="0 0 0 0 0 0 0 0 0 0 0 0 0 0 0 0 0 0 0.25 0"/>
<feBlend mode="normal" in2="BackgroundImageFix" result="effect1_dropShadow_17_53"/>
<feBlend mode="normal" in="SourceGraphic" in2="effect1_dropShadow_17_53" result="shape"/>
</filter>
<filter id="filter1_d_17_53" x="10.4054" y="0.160828" width="61.5817" height="62.5843" filterUnits="userSpaceOnUse" color-interpolation-filters="sRGB">
<feFlood flood-opacity="0" result="BackgroundImageFix"/>
<feColorMatrix in="SourceAlpha" type="matrix" values="0 0 0 0 0 0 0 0 0 0 0 0 0 0 0 0 0 0 127 0" result="hardAlpha"/>
<feOffset dy="4"/>
<feGaussianBlur stdDeviation="10"/>
<feComposite in2="hardAlpha" operator="out"/>
<feColorMatrix type="matrix" values="0 0 0 0 0 0 0 0 0 0 0 0 0 0 0 0 0 0 0.25 0"/>
<feBlend mode="normal" in2="BackgroundImageFix" result="effect1_dropShadow_17_53"/>
<feBlend mode="normal" in="SourceGraphic" in2="effect1_dropShadow_17_53" result="shape"/>
</filter>
<linearGradient id="paint0_linear_17_53" x1="23.1961" y1="32.1493" x2="33.3879" y2="51.29" gradientUnits="userSpaceOnUse">
<stop/>
<stop offset="0.494792" stop-color="#3D3B16"/>
<stop offset="1" stop-color="#FFC30D"/>
</linearGradient>
<linearGradient id="paint1_linear_17_53" x1="49.7512" y1="38.7451" x2="39.5222" y2="19.5794" gradientUnits="userSpaceOnUse">
<stop stop-color="#0C0C0C"/>
<stop offset="0.494792" stop-color="#3D3B16"/>
<stop offset="1" stop-color="#FFC30D"/>
</linearGradient>
</defs>
</svg>
