<svg width="60" height="59" viewBox="0 0 60 59" fill="none" xmlns="http://www.w3.org/2000/svg">
<path d="M59.56 29.5C59.56 45.7924 46.3524 59 30.06 59C13.7676 59 0.559998 45.7924 0.559998 29.5C0.559998 13.2076 13.7676 0 30.06 0C46.3524 0 59.56 13.2076 59.56 29.5ZM4.1 29.5C4.1 43.8373 15.7227 55.46 30.06 55.46C44.3973 55.46 56.02 43.8373 56.02 29.5C56.02 15.1627 44.3973 3.54 30.06 3.54C15.7227 3.54 4.1 15.1627 4.1 29.5Z" fill="#FFCF5F"/>
<path d="M30.06 0C36.4482 7.61788e-08 42.6638 2.07368 47.7724 5.9093C52.881 9.74492 56.6064 15.1352 58.3887 21.2698C60.1709 27.4043 59.9137 33.9517 57.6556 39.9275C55.3975 45.9033 51.2606 50.9847 45.8669 54.4077C40.4731 57.8307 34.114 59.4103 27.7455 58.9091C21.3769 58.4078 15.3432 55.8529 10.5513 51.6283C5.75942 47.4037 2.46837 41.7377 1.17292 35.4822C-0.122526 29.2267 0.647627 22.7197 3.3676 16.9395L8.70608 19.4516C6.5301 24.0758 5.91398 29.2814 6.95034 34.2858C7.9867 39.2902 10.6195 43.8229 14.453 47.2026C18.2865 50.5823 23.1135 52.6263 28.2084 53.0272C33.3032 53.4282 38.3905 52.1645 42.7055 49.4261C47.0205 46.6878 50.33 42.6227 52.1365 37.842C53.9429 33.0613 54.1487 27.8235 52.7229 22.9158C51.2971 18.0082 48.3168 13.6959 44.2299 10.6274C40.1431 7.55895 35.1706 5.9 30.06 5.9V0Z" fill="url(#paint0_linear_38_830)"/>
<path d="M30.06 0C36.4482 7.61788e-08 42.6638 2.07368 47.7724 5.9093C52.881 9.74492 56.6064 15.1352 58.3887 21.2698C60.1709 27.4043 59.9137 33.9517 57.6556 39.9275C55.3975 45.9033 51.2606 50.9847 45.8669 54.4077C40.4731 57.8307 34.114 59.4103 27.7455 58.9091C21.3769 58.4078 15.3432 55.8529 10.5513 51.6283C5.75942 47.4037 2.46837 41.7377 1.17292 35.4822C-0.122526 29.2267 0.647627 22.7197 3.3676 16.9395L8.70608 19.4516C6.5301 24.0758 5.91398 29.2814 6.95034 34.2858C7.9867 39.2902 10.6195 43.8229 14.453 47.2026C18.2865 50.5823 23.1135 52.6263 28.2084 53.0272C33.3032 53.4282 38.3905 52.1645 42.7055 49.4261C47.0205 46.6878 50.33 42.6227 52.1365 37.842C53.9429 33.0613 54.1487 27.8235 52.7229 22.9158C51.2971 18.0082 48.3168 13.6959 44.2299 10.6274C40.1431 7.55895 35.1706 5.9 30.06 5.9V0Z" fill="black" fill-opacity="0.2"/>
<path d="M25.2567 34.3065C24.2607 34.3065 23.4927 34.0425 22.9527 33.5145C22.4247 32.9745 22.1607 32.2005 22.1607 31.1925V30.0765C22.1607 29.4525 22.2627 28.9305 22.4667 28.5105C22.6707 28.0785 23.0007 27.7425 23.4567 27.5025V27.4665C23.0367 27.2385 22.7247 26.9265 22.5207 26.5305C22.3287 26.1225 22.2327 25.6065 22.2327 24.9825V24.4605C22.2327 23.4525 22.4907 22.6845 23.0067 22.1565C23.5347 21.6165 24.2847 21.3465 25.2567 21.3465C26.2287 21.3465 26.9727 21.6165 27.4887 22.1565C28.0167 22.6845 28.2807 23.4525 28.2807 24.4605V24.9825C28.2807 26.1825 27.8727 27.0105 27.0567 27.4665V27.5025C27.5127 27.7425 27.8427 28.0785 28.0467 28.5105C28.2507 28.9305 28.3527 29.4525 28.3527 30.0765V31.1925C28.3527 32.2005 28.0827 32.9745 27.5427 33.5145C27.0147 34.0425 26.2527 34.3065 25.2567 34.3065ZM25.2567 26.6565C25.9527 26.6565 26.3007 26.2365 26.3007 25.3965V24.4065C26.3007 23.5665 25.9527 23.1465 25.2567 23.1465C24.5607 23.1465 24.2127 23.5665 24.2127 24.4065V25.3965C24.2127 26.2365 24.5607 26.6565 25.2567 26.6565ZM25.2567 32.5065C26.0007 32.5065 26.3727 32.0325 26.3727 31.0845V29.8785C26.3727 28.9305 26.0007 28.4565 25.2567 28.4565C24.5127 28.4565 24.1407 28.9305 24.1407 29.8785V31.0845C24.1407 32.0325 24.5127 32.5065 25.2567 32.5065ZM29.6017 32.2185H31.5097V34.1265H29.6017V32.2185ZM32.9583 32.7585C32.9583 31.8585 33.1023 31.0905 33.3903 30.4545C33.6783 29.8065 34.1943 29.0925 34.9383 28.3125C35.6703 27.5325 36.1743 26.8665 36.4503 26.3145C36.7383 25.7625 36.8823 25.1865 36.8823 24.5865C36.8823 24.0465 36.7923 23.6745 36.6123 23.4705C36.4443 23.2545 36.1923 23.1465 35.8563 23.1465C35.1723 23.1465 34.8303 23.5605 34.8303 24.3885V25.7385H32.9583V24.5145C32.9583 23.4945 33.2103 22.7145 33.7143 22.1745C34.2183 21.6225 34.9503 21.3465 35.9103 21.3465C36.8703 21.3465 37.6023 21.6225 38.1063 22.1745C38.6103 22.7145 38.8623 23.4945 38.8623 24.5145C38.8623 25.2825 38.6763 26.0325 38.3043 26.7645C37.9443 27.4965 37.3143 28.3365 36.4143 29.2845C35.8263 29.9085 35.4303 30.4185 35.2263 30.8145C35.0223 31.1985 34.9203 31.6125 34.9203 32.0565V32.3265H38.6823V34.1265H32.9583V32.7585Z" fill="white"/>
<defs>
<linearGradient id="paint0_linear_38_830" x1="59.56" y1="0" x2="0.559998" y2="0" gradientUnits="userSpaceOnUse">
<stop stop-color="#8743FF"/>
<stop offset="1" stop-color="#4136F1"/>
</linearGradient>
</defs>
</svg>
