<svg width="60" height="59" viewBox="0 0 60 59" fill="none" xmlns="http://www.w3.org/2000/svg">
<path d="M59.5 29.5C59.5 45.7924 46.2924 59 30 59C13.7076 59 0.5 45.7924 0.5 29.5C0.5 13.2076 13.7076 0 30 0C46.2924 0 59.5 13.2076 59.5 29.5ZM4.04 29.5C4.04 43.8373 15.6627 55.46 30 55.46C44.3373 55.46 55.96 43.8373 55.96 29.5C55.96 15.1627 44.3373 3.54 30 3.54C15.6627 3.54 4.04 15.1627 4.04 29.5Z" fill="#FFCF5F"/>
<path d="M30 0C35.9925 7.14599e-08 41.8429 1.825 46.7726 5.23211C51.7023 8.63921 55.4774 13.4668 57.5956 19.0725C59.7138 24.6781 60.0746 30.796 58.6299 36.6117C57.1853 42.4275 54.0037 47.6654 49.5087 51.6283C45.0137 55.5912 39.4183 58.0912 33.4674 58.7955C27.5164 59.4999 21.492 58.3752 16.1961 55.5711C10.9001 52.767 6.58369 48.4166 3.8213 43.0987C1.05891 37.7809 -0.0184435 31.7479 0.732617 25.8027L6.58609 26.5421C5.98524 31.2983 6.84713 36.1247 9.05704 40.379C11.267 44.6333 14.7201 48.1136 18.9569 50.3569C23.1936 52.6001 28.0131 53.4999 32.7739 52.9364C37.5347 52.3729 42.0109 50.373 45.607 47.2026C49.203 44.0323 51.7482 39.842 52.904 35.1894C54.0597 30.5368 53.771 25.6425 52.0765 21.158C50.3819 16.6735 47.3618 12.8114 43.4181 10.0857C39.4743 7.36 34.794 5.9 30 5.9V0Z" fill="url(#paint0_linear_37_448)"/>
<path d="M30 0C35.9925 7.14599e-08 41.8429 1.825 46.7726 5.23211C51.7023 8.63921 55.4774 13.4668 57.5956 19.0725C59.7138 24.6781 60.0746 30.796 58.6299 36.6117C57.1853 42.4275 54.0037 47.6654 49.5087 51.6283C45.0137 55.5912 39.4183 58.0912 33.4674 58.7955C27.5164 59.4999 21.492 58.3752 16.1961 55.5711C10.9001 52.767 6.58369 48.4166 3.8213 43.0987C1.05891 37.7809 -0.0184435 31.7479 0.732617 25.8027L6.58609 26.5421C5.98524 31.2983 6.84713 36.1247 9.05704 40.379C11.267 44.6333 14.7201 48.1136 18.9569 50.3569C23.1936 52.6001 28.0131 53.4999 32.7739 52.9364C37.5347 52.3729 42.0109 50.373 45.607 47.2026C49.203 44.0323 51.7482 39.842 52.904 35.1894C54.0597 30.5368 53.771 25.6425 52.0765 21.158C50.3819 16.6735 47.3618 12.8114 43.4181 10.0857C39.4743 7.36 34.794 5.9 30 5.9V0Z" fill="black" fill-opacity="0.2"/>
<path d="M26.2047 23.3265H22.2087V21.5265H28.1487V23.2545L25.0527 34.1265H23.0367L26.2047 23.3265ZM29.5417 32.2185H31.4497V34.1265H29.5417V32.2185ZM36.8043 23.3265H32.8083V21.5265H38.7483V23.2545L35.6523 34.1265H33.6363L36.8043 23.3265Z" fill="white"/>
<defs>
<linearGradient id="paint0_linear_37_448" x1="59.5" y1="0" x2="0.5" y2="0" gradientUnits="userSpaceOnUse">
<stop stop-color="#8743FF"/>
<stop offset="1" stop-color="#4136F1"/>
</linearGradient>
</defs>
</svg>
