<svg width="71" height="16" viewBox="0 0 71 16" fill="none" xmlns="http://www.w3.org/2000/svg">
<path d="M23.8876 10.1966H19.2076L18.1996 12.4406H17.2756L21.1156 4.04058H21.9916L25.8316 12.4406H24.8956L23.8876 10.1966ZM23.5636 9.47658L21.5476 4.96458L19.5316 9.47658H23.5636ZM29.5293 9.63258H28.0893V12.4406H27.2373V6.12858H28.0893V8.90058H29.5413L31.7613 6.12858H32.6853L30.2013 9.18858L32.8653 12.4406H31.8573L29.5293 9.63258ZM38.5211 6.88458H36.1331V12.4406H35.2811V6.88458H32.8931V6.12858H38.5211V6.88458ZM39.753 6.12858H40.605V11.1446L44.817 6.12858H45.573V12.4406H44.721V7.42458L40.521 12.4406H39.753V6.12858ZM52.0347 9.17658C52.8907 9.37658 53.3187 9.89258 53.3187 10.7246C53.3187 11.2766 53.1147 11.7006 52.7067 11.9966C52.2987 12.2926 51.6907 12.4406 50.8827 12.4406H48.0147V6.12858H50.7987C51.5187 6.12858 52.0827 6.26858 52.4907 6.54858C52.8987 6.82858 53.1027 7.22858 53.1027 7.74858C53.1027 8.09258 53.0067 8.38858 52.8147 8.63658C52.6307 8.87658 52.3707 9.05658 52.0347 9.17658ZM48.8427 8.93658H50.7387C51.2267 8.93658 51.5987 8.84458 51.8547 8.66058C52.1187 8.47658 52.2507 8.20858 52.2507 7.85658C52.2507 7.50458 52.1187 7.24058 51.8547 7.06458C51.5987 6.88858 51.2267 6.80058 50.7387 6.80058H48.8427V8.93658ZM50.8467 11.7686C51.3907 11.7686 51.7987 11.6806 52.0707 11.5046C52.3427 11.3286 52.4787 11.0526 52.4787 10.6766C52.4787 10.3006 52.3547 10.0246 52.1067 9.84858C51.8587 9.66458 51.4667 9.57258 50.9307 9.57258H48.8427V11.7686H50.8467ZM55.3155 6.12858H56.1675V8.92458H60.1395V6.12858H60.9915V12.4406H60.1395V9.65658H56.1675V12.4406H55.3155V6.12858ZM66.0171 12.5006C65.4091 12.5006 64.8611 12.3646 64.3731 12.0926C63.8851 11.8126 63.5011 11.4286 63.2211 10.9406C62.9411 10.4526 62.8011 9.90058 62.8011 9.28458C62.8011 8.66858 62.9411 8.11658 63.2211 7.62858C63.5011 7.14058 63.8851 6.76058 64.3731 6.48858C64.8611 6.21658 65.4091 6.08058 66.0171 6.08058C66.6251 6.08058 67.1731 6.21658 67.6611 6.48858C68.1491 6.76058 68.5291 7.14058 68.8011 7.62858C69.0811 8.11658 69.2211 8.66858 69.2211 9.28458C69.2211 9.90058 69.0811 10.4526 68.8011 10.9406C68.5291 11.4286 68.1491 11.8126 67.6611 12.0926C67.1731 12.3646 66.6251 12.5006 66.0171 12.5006ZM66.0171 11.7446C66.4651 11.7446 66.8651 11.6446 67.2171 11.4446C67.5771 11.2366 67.8571 10.9446 68.0571 10.5686C68.2571 10.1926 68.3571 9.76458 68.3571 9.28458C68.3571 8.80458 68.2571 8.37658 68.0571 8.00058C67.8571 7.62458 67.5771 7.33658 67.2171 7.13658C66.8651 6.92858 66.4651 6.82458 66.0171 6.82458C65.5691 6.82458 65.1651 6.92858 64.8051 7.13658C64.4531 7.33658 64.1731 7.62458 63.9651 8.00058C63.7651 8.37658 63.6651 8.80458 63.6651 9.28458C63.6651 9.76458 63.7651 10.1926 63.9651 10.5686C64.1731 10.9446 64.4531 11.2366 64.8051 11.4446C65.1651 11.6446 65.5691 11.7446 66.0171 11.7446Z" fill="white"/>
<path fill-rule="evenodd" clip-rule="evenodd" d="M4.02844 1.69855H8.50109C10.2499 1.69855 11.4209 2.92582 11.4209 4.75202V8.96673C11.4209 10.7883 10.2499 12.0161 8.50109 12.0161H4.02844C2.27962 12.0161 1.10342 10.7883 1.10342 8.96673V4.75202C1.10342 2.92582 2.27962 1.69855 4.02844 1.69855ZM8.10902 8.8228C8.23799 8.8228 8.36696 8.75573 8.43918 8.63192C8.55268 8.45085 8.49077 8.21355 8.30506 8.10057L6.46854 7.00691V4.62305C6.46854 4.41206 6.2983 4.23614 6.08163 4.23614C5.87012 4.23614 5.69472 4.41206 5.69472 4.62305V7.22874C5.69472 7.36287 5.76694 7.49184 5.8856 7.5589L7.90783 8.76605C7.96974 8.80732 8.04196 8.8228 8.10902 8.8228Z" fill="#FFC30D"/>
</svg>
